<svg viewBox="0 0 1024 1176.463" xmlns="http://www.w3.org/2000/svg"><path d="M155.988 324.79l16.253-28.713c17.688 10.133 38.165 18.914 59.68 25.275l2.06.522-9.265 31.708c-26.22-7.65-49.002-17.436-70.264-29.582l1.578.83zm68.687 296.59l9.305-31.748c-23.57-6.872-44.05-15.653-63.167-26.547l1.43.75-16.254 28.753c19.683 11.314 42.465 21.102 66.41 28.176l2.275.576zm-68.687 238.964c19.678 11.292 42.458 21.078 66.396 28.17l2.29.582 9.305-31.708c-23.58-6.884-44.056-15.65-63.187-26.514l1.447.756zm764.656-552.128l-434.88 463.552c-2.978 3.152-7.186 5.114-11.853 5.114-2.953 0-5.724-.786-8.113-2.16l.08.04c-4.976-2.95-8.26-8.294-8.26-14.405 0-1.567.217-3.083.62-4.52l-.028.117L559.4 379.54H448.944c-5.905-.022-11.066-3.19-13.895-7.914l-.04-.074c-1.484-2.444-2.362-5.398-2.362-8.558 0-2.813.696-5.464 1.925-7.79l-.043.092 120.36-231.776c2.74-5.27 8.138-8.816 14.37-8.865h248.396c5.47.01 10.303 2.734 13.224 6.897l.034.052c1.905 2.692 3.045 6.043 3.045 9.66 0 1.887-.31 3.7-.882 5.394l.035-.12-48.08 143.68H908.82c6.71.03 12.46 4.11 14.936 9.918l.04.107c.826 1.92 1.307 4.157 1.307 6.506 0 4.432-1.712 8.466-4.51 11.474l.008-.01zm-49.877 5.11h-108.5c-5.463-.005-10.292-2.712-13.224-6.857l-.034-.052c-1.916-2.69-3.062-6.04-3.062-9.66 0-1.902.316-3.73.9-5.434l-.035.118 48.08-143.642H579.132L475.983 346.432h104.765c5.297 0 9.996 2.558 12.93 6.507l.03.042c2.08 2.754 3.333 6.235 3.333 10.008 0 1.554-.21 3.058-.608 4.485l.028-.117-89.81 334.048zm-174.79 276.146l32.625-.2v.2c-1.203 23.42-12.59 43.956-29.782 57.416l-.17.13c17.42 13.67 28.82 34.33 29.945 57.685l.007.178q-.09 77.275 0 154.546c0 75.116-135.336 131.782-314.84 131.782-178.544 0-313.32-56.064-314.68-130.584q-.32-78.05-.12-156.102c1.2-23.33 12.503-43.798 29.586-57.26l.166-.125c-17.16-13.633-28.44-34.03-29.78-57.094l-.01-.212V434.41c1.243-23.347 12.567-43.82 29.664-57.3l.166-.125c-17.17-13.63-28.462-34.025-29.82-57.09l-.01-.215c0-54.19-.08-109.22.08-155.623C99.644 89.18 234.7 32.79 413.764 32.79c3.658-.078 7.968-.123 12.29-.123 77.205 0 151.068 14.313 219.08 40.43l-4.186-1.412-12.58 30.592c-59.947-23.1-129.308-36.484-201.795-36.484-4.505 0-8.997.052-13.477.154l.666-.012c-166.325 0-282.214 51.914-282.214 98.637 0 46.643 115.89 98.637 282.214 98.637 4.592 0 8.865 0 13.338-.2l1.318 33.065c-4.872.24-9.784.24-14.656.24-9.722.724-21.06 1.138-32.492 1.138-92.725 0-179.098-27.194-251.58-74.042l1.822 1.103v95.04c.2 17.97 17.97 33.664 32.785 43.648 61.736 33.56 135.154 53.378 213.182 53.593h.065l-1.478 33.108c-80.22-.87-155.673-20.426-222.48-54.508l2.843 1.317c-13.282 8.246-22.565 21.857-24.845 37.73l-.034.285c0 46.643 115.89 98.637 282.215 98.637q24.62 0 48.04-1.677l2.396 32.986c-16.372 1.2-33.264 1.798-50.435 1.798-9.738.728-21.093 1.143-32.545 1.143-92.703 0-179.058-27.18-251.53-74.004l1.822 1.103v94.563c.2 18.45 17.93 34.143 32.785 44.087 65.903 34.7 144.012 55.066 226.878 55.066 7.945 0 15.846-.187 23.7-.557l-1.11.04h7.268v33.146h-7.27c-6.193.255-13.46.4-20.763.4-86.108 0-167.5-20.185-239.707-56.082l3.135 1.41c-13.282 8.282-22.563 21.916-24.845 37.81l-.034.287c0 46.644 115.888 98.638 282.213 98.638 166.085 0 281.856-51.834 282.176-98.437v-.28c-2.286-16.092-11.53-29.65-24.535-37.726l-.225-.13c-7.3 4.426-15.98 8.914-24.963 12.843l-1.474.575-12.62-30.51c11.92-4.993 22.106-10.504 31.67-16.878l-.68.426c15.015-10.14 32.865-25.995 32.865-43.925zm-.04 270.153V764.94c-70.67 45.67-157.023 72.816-249.718 72.816-11.423 0-22.748-.412-33.963-1.222l1.503.087c-9.717.725-21.048 1.138-32.476 1.138-92.724 0-179.1-27.176-251.6-73.998l1.825 1.104v94.604c0 46.643 115.927 98.637 282.252 98.637 166.125-.002 281.933-51.916 282.173-98.48z"/></svg>